<svg id="svg" version="1.1" xmlns="http://www.w3.org/2000/svg" xmlns:xlink="http://www.w3.org/1999/xlink" width="400" height="79.59009393680614" viewBox="0, 0, 400,79.59009393680614"><g id="svgg"><path id="path0" d="M123.750 15.923 C 121.002 16.196,119.272 16.512,117.400 17.084 C 112.520 18.575,108.063 21.416,105.375 24.750 C 104.857 25.392,104.387 25.954,104.329 26.000 C 103.997 26.262,102.448 28.817,101.773 30.216 C 96.586 40.964,99.094 53.290,107.428 58.009 C 107.788 58.213,108.392 58.554,108.769 58.766 C 116.301 63.004,129.529 62.149,136.905 56.947 C 137.942 56.216,138.022 56.073,138.355 54.333 C 138.801 52.009,139.244 49.802,139.493 48.667 C 140.105 45.870,141.382 39.446,141.455 38.789 L 141.543 37.995 136.904 38.039 L 132.264 38.083 131.882 40.000 C 131.672 41.054,131.419 42.329,131.320 42.833 C 131.221 43.337,131.076 44.050,130.998 44.417 C 130.920 44.783,130.769 45.571,130.664 46.167 C 130.410 47.604,130.172 48.782,129.986 49.519 C 129.902 49.851,129.833 50.308,129.833 50.535 C 129.833 52.781,120.400 53.550,115.852 51.674 C 109.632 49.110,107.618 41.301,111.205 33.667 C 115.748 23.998,129.746 21.225,137.289 28.499 L 138.161 29.340 139.456 28.295 C 140.168 27.720,140.893 27.137,141.068 27.000 C 141.243 26.863,141.655 26.520,141.984 26.239 C 142.314 25.958,143.033 25.384,143.583 24.964 C 145.698 23.348,145.667 23.557,144.042 21.891 C 139.377 17.109,132.419 15.063,123.750 15.923 M214.833 15.906 C 207.162 16.709,201.529 19.411,196.942 24.487 C 191.110 30.941,188.740 41.636,191.493 49.083 C 191.696 49.633,191.907 50.233,191.961 50.417 C 193.575 55.856,201.124 60.675,209.083 61.348 C 225.651 62.749,238.011 52.810,239.331 37.025 C 240.479 23.302,230.050 14.312,214.833 15.906 M315.250 15.923 C 307.122 16.730,301.503 19.479,296.463 25.115 C 294.276 27.561,291.855 32.647,291.163 36.250 C 291.057 36.800,290.896 37.601,290.805 38.031 C 289.769 42.903,291.200 49.694,294.082 53.583 C 300.802 62.652,317.815 64.242,328.616 56.811 C 329.480 56.217,329.478 56.220,329.690 55.044 C 329.910 53.828,330.059 53.065,330.380 51.500 C 330.522 50.813,330.672 50.063,330.715 49.833 C 330.758 49.604,331.290 46.964,331.897 43.967 C 332.504 40.969,333.000 38.400,333.000 38.258 C 333.000 37.950,323.941 37.858,323.751 38.164 C 323.696 38.255,323.572 38.761,323.476 39.289 C 323.381 39.818,323.241 40.550,323.167 40.917 C 323.034 41.569,322.791 42.836,322.512 44.333 C 322.327 45.331,321.881 47.552,321.478 49.493 C 321.080 51.408,321.125 51.352,319.629 51.822 C 318.962 52.032,318.264 52.261,318.078 52.331 C 315.951 53.137,309.984 52.825,307.605 51.783 C 307.250 51.627,306.903 51.500,306.834 51.500 C 306.461 51.500,304.156 49.775,303.589 49.071 C 303.225 48.619,302.886 48.212,302.835 48.167 C 302.784 48.121,302.505 47.633,302.216 47.082 C 299.945 42.758,300.835 35.600,304.207 31.083 C 309.900 23.458,321.808 22.081,328.497 28.274 C 329.716 29.402,329.287 29.569,333.203 26.444 C 337.225 23.234,336.995 23.510,336.308 22.718 C 331.691 17.395,324.334 15.021,315.250 15.923 M155.443 16.625 C 155.386 16.719,152.456 31.165,151.953 33.833 C 151.910 34.063,151.753 34.850,151.604 35.583 C 151.456 36.317,151.254 37.329,151.155 37.833 C 151.056 38.337,150.910 39.012,150.830 39.333 C 150.749 39.654,150.636 40.217,150.577 40.583 C 150.463 41.299,150.361 41.831,149.941 43.917 C 149.561 45.801,149.393 46.617,149.172 47.667 C 148.262 51.989,146.580 60.691,146.643 60.754 C 146.779 60.890,180.809 60.840,180.893 60.705 C 181.077 60.407,182.519 52.957,182.435 52.739 C 182.357 52.535,180.617 52.500,170.404 52.500 L 158.465 52.500 158.554 51.875 C 158.603 51.531,158.724 50.856,158.822 50.375 C 158.920 49.894,159.066 49.144,159.147 48.708 C 159.437 47.143,160.185 43.406,160.306 42.917 L 160.429 42.417 170.666 42.374 C 176.296 42.350,180.958 42.275,181.025 42.207 C 181.093 42.139,181.264 41.483,181.407 40.750 C 181.549 40.017,181.744 39.042,181.839 38.583 C 182.462 35.587,182.628 34.568,182.515 34.451 C 182.444 34.379,177.871 34.321,172.353 34.323 C 164.246 34.325,162.304 34.284,162.237 34.108 C 162.191 33.989,162.416 32.546,162.739 30.904 C 163.545 26.788,163.668 26.187,163.869 25.375 L 164.043 24.667 175.595 24.667 C 182.206 24.667,187.186 24.603,187.239 24.518 C 187.290 24.436,187.481 23.629,187.664 22.726 C 187.847 21.823,188.184 20.183,188.413 19.083 C 188.642 17.983,188.831 16.952,188.832 16.792 C 188.833 16.483,155.631 16.317,155.443 16.625 M251.422 16.659 C 251.326 16.813,249.431 25.905,249.006 28.250 C 248.923 28.708,248.691 29.871,248.492 30.833 C 248.150 32.484,248.041 33.042,247.687 34.958 C 247.607 35.394,247.351 36.688,247.120 37.833 C 246.888 38.979,246.662 40.104,246.619 40.333 C 246.575 40.563,245.733 44.725,244.748 49.583 C 242.999 58.209,242.699 59.735,242.621 60.417 C 242.584 60.743,242.695 60.751,247.618 60.794 C 253.365 60.844,252.851 60.989,253.154 59.234 C 253.248 58.693,253.438 57.688,253.578 57.000 C 253.718 56.313,253.915 55.337,254.016 54.833 C 254.433 52.745,254.539 52.218,254.672 51.583 C 254.748 51.217,254.901 50.429,255.011 49.833 C 255.299 48.274,255.108 48.333,259.845 48.333 C 262.937 48.333,264.001 48.385,264.125 48.542 C 264.271 48.723,265.875 51.567,267.252 54.083 C 267.503 54.542,267.839 55.142,268.000 55.417 C 268.161 55.692,268.497 56.292,268.746 56.750 C 268.996 57.208,269.614 58.315,270.118 59.208 L 271.035 60.833 276.323 60.833 C 282.038 60.833,281.980 60.841,281.495 60.160 C 281.314 59.906,281.167 59.665,281.167 59.624 C 281.167 59.583,280.154 57.766,278.917 55.586 C 277.679 53.407,276.667 51.603,276.667 51.577 C 276.667 51.552,276.142 50.617,275.500 49.500 C 274.071 47.013,274.070 47.128,275.542 46.576 C 279.113 45.236,282.813 42.384,284.006 40.052 C 284.137 39.794,284.377 39.396,284.537 39.167 C 286.385 36.532,287.337 29.865,286.358 26.417 C 284.902 21.291,281.191 18.265,274.667 16.884 C 273.109 16.555,251.615 16.346,251.422 16.659 M346.924 16.656 C 346.871 16.741,346.763 17.135,346.683 17.531 C 346.604 17.926,346.425 18.813,346.284 19.500 C 346.144 20.188,345.995 20.938,345.952 21.167 C 345.909 21.396,345.753 22.183,345.604 22.917 C 345.456 23.650,345.253 24.662,345.154 25.167 C 345.054 25.671,344.910 26.383,344.833 26.750 C 344.757 27.117,344.607 27.867,344.500 28.417 C 344.393 28.967,344.241 29.717,344.162 30.083 C 344.082 30.450,343.945 31.125,343.857 31.583 C 343.493 33.474,343.298 34.452,343.159 35.083 C 343.078 35.450,342.928 36.200,342.826 36.750 C 342.724 37.300,342.573 38.050,342.490 38.417 C 341.945 40.845,338.167 60.058,338.167 60.405 L 338.167 60.833 355.232 60.833 C 371.330 60.833,372.304 60.817,372.412 60.542 C 372.475 60.381,372.595 59.875,372.678 59.417 C 372.761 58.958,372.981 57.871,373.167 57.000 C 373.748 54.275,373.874 53.599,373.896 53.083 L 373.917 52.583 361.858 52.541 C 350.468 52.500,349.805 52.482,349.913 52.207 C 349.975 52.047,350.090 51.542,350.168 51.083 C 350.310 50.244,351.328 45.072,351.701 43.293 L 351.902 42.336 362.236 42.293 L 372.570 42.250 372.697 41.667 C 372.768 41.346,372.893 40.708,372.976 40.250 C 373.197 39.028,373.662 36.688,373.843 35.885 C 373.929 35.500,374.000 34.994,374.000 34.760 L 374.000 34.333 371.708 34.328 C 370.448 34.325,365.863 34.324,361.521 34.326 L 353.624 34.328 353.740 33.456 C 353.803 32.976,354.154 31.121,354.520 29.333 C 354.886 27.546,355.239 25.783,355.305 25.417 L 355.426 24.750 367.083 24.667 L 378.740 24.583 379.041 23.167 C 379.207 22.387,379.407 21.412,379.486 21.000 C 379.565 20.587,379.788 19.474,379.982 18.527 C 380.176 17.579,380.292 16.735,380.241 16.652 C 380.113 16.445,347.051 16.449,346.924 16.656 M220.868 24.900 C 227.311 26.535,230.399 32.657,228.526 40.083 C 226.745 47.141,222.051 51.625,215.353 52.664 C 213.275 52.987,208.337 52.573,207.583 52.013 C 207.492 51.945,207.154 51.788,206.833 51.665 C 202.466 49.990,199.807 43.998,201.005 38.532 C 201.099 38.102,201.257 37.375,201.355 36.917 C 203.225 28.207,212.176 22.695,220.868 24.900 M270.694 25.072 C 274.638 25.840,276.325 27.699,276.331 31.284 C 276.338 35.644,274.060 38.545,269.667 39.770 C 268.164 40.188,257.000 40.341,257.000 39.942 C 257.000 39.808,257.183 38.772,257.408 37.641 C 258.189 33.697,259.671 26.411,259.851 25.625 L 260.033 24.833 264.752 24.833 C 268.161 24.833,269.810 24.899,270.694 25.072 " stroke="none" fill="#eaeada" fill-rule="evenodd"></path><path id="path1" d="M0.000 39.750 L 0.000 79.500 200.000 79.500 L 400.000 79.500 400.000 39.750 L 400.000 0.000 200.000 0.000 L 0.000 0.000 0.000 39.750 M40.274 15.919 C 40.327 16.057,40.298 16.264,40.209 16.377 C 40.120 16.491,39.746 17.146,39.378 17.833 C 38.587 19.311,35.730 24.576,35.104 25.708 C 34.863 26.144,34.468 26.856,34.225 27.292 C 33.982 27.727,33.486 28.646,33.121 29.333 C 32.548 30.415,31.656 32.050,29.168 36.583 C 28.388 38.003,27.806 39.076,27.087 40.417 C 26.743 41.058,26.245 41.977,25.980 42.458 C 25.716 42.940,25.286 43.727,25.024 44.208 C 24.762 44.690,24.098 45.908,23.548 46.917 C 22.476 48.884,21.691 50.333,20.730 52.125 C 20.397 52.744,19.958 53.550,19.752 53.917 C 19.250 54.813,18.639 55.938,17.012 58.958 L 15.642 61.500 10.738 61.500 C 5.252 61.500,5.524 61.573,6.227 60.298 C 6.895 59.086,7.595 57.802,8.252 56.583 C 8.598 55.942,9.496 54.292,10.249 52.917 C 11.874 49.945,12.592 48.625,13.373 47.167 C 14.038 45.925,14.679 44.749,15.917 42.500 C 16.397 41.629,17.109 40.317,17.501 39.583 C 17.893 38.850,18.268 38.175,18.336 38.083 C 18.403 37.992,18.814 37.242,19.249 36.417 C 20.147 34.713,20.906 33.315,21.331 32.583 C 21.490 32.308,21.980 31.408,22.420 30.583 C 22.859 29.758,23.609 28.371,24.085 27.500 C 24.562 26.629,25.235 25.392,25.581 24.750 C 26.198 23.606,26.757 22.581,27.670 20.917 C 27.922 20.458,28.388 19.596,28.705 19.000 C 29.023 18.404,29.435 17.650,29.621 17.324 C 29.806 16.998,30.082 16.492,30.233 16.199 L 30.509 15.667 35.343 15.667 C 39.504 15.667,40.191 15.702,40.274 15.919 M75.375 15.764 C 75.478 15.867,75.360 16.098,72.976 20.458 C 72.450 21.421,70.885 24.290,69.953 26.000 C 68.749 28.210,68.473 28.716,68.020 29.542 C 67.756 30.023,67.182 31.091,66.744 31.915 C 66.307 32.739,65.822 33.639,65.668 33.915 C 65.513 34.191,64.875 35.354,64.250 36.500 C 63.625 37.646,62.984 38.814,62.826 39.096 C 62.668 39.378,62.146 40.347,61.667 41.250 C 61.187 42.153,60.643 43.160,60.456 43.487 C 60.270 43.815,59.893 44.496,59.619 45.000 C 59.345 45.504,58.729 46.629,58.250 47.500 C 57.090 49.609,56.369 50.945,55.416 52.750 C 54.981 53.575,54.571 54.325,54.504 54.417 C 54.438 54.508,53.997 55.314,53.522 56.208 C 51.657 59.723,50.804 61.228,50.594 61.372 C 50.386 61.516,40.935 61.546,40.792 61.403 C 40.703 61.315,41.227 60.241,42.290 58.333 C 42.520 57.921,43.233 56.608,43.875 55.417 C 44.517 54.225,45.247 52.875,45.498 52.417 C 45.749 51.958,46.179 51.171,46.454 50.667 C 47.277 49.158,48.019 47.800,48.504 46.917 C 48.755 46.458,49.222 45.596,49.540 45.000 C 49.859 44.404,50.366 43.467,50.667 42.917 C 51.297 41.766,53.002 38.641,53.667 37.417 C 53.916 36.958,54.346 36.171,54.621 35.667 C 54.897 35.162,55.406 34.225,55.752 33.583 C 56.099 32.942,56.832 31.592,57.381 30.583 C 57.931 29.575,58.606 28.337,58.880 27.833 C 59.155 27.329,59.568 26.579,59.798 26.167 C 60.028 25.754,60.514 24.854,60.878 24.167 C 61.725 22.566,62.608 20.931,63.085 20.083 C 63.291 19.717,63.741 18.892,64.085 18.250 C 64.429 17.608,64.895 16.765,65.121 16.375 L 65.532 15.667 70.405 15.667 C 73.085 15.667,75.322 15.711,75.375 15.764 M130.668 15.909 C 136.742 16.666,140.651 18.415,144.042 21.891 C 145.667 23.557,145.698 23.348,143.583 24.964 C 143.033 25.384,142.314 25.958,141.984 26.239 C 141.655 26.520,141.243 26.863,141.068 27.000 C 140.893 27.137,140.168 27.720,139.456 28.295 L 138.161 29.340 137.289 28.499 C 129.746 21.225,115.748 23.998,111.205 33.667 C 107.618 41.301,109.632 49.110,115.852 51.674 C 120.400 53.550,129.833 52.781,129.833 50.535 C 129.833 50.308,129.902 49.851,129.986 49.519 C 130.172 48.782,130.410 47.604,130.664 46.167 C 130.769 45.571,130.920 44.783,130.998 44.417 C 131.076 44.050,131.221 43.337,131.320 42.833 C 131.419 42.329,131.672 41.054,131.882 40.000 L 132.264 38.083 136.904 38.039 L 141.543 37.995 141.455 38.789 C 141.382 39.446,140.105 45.870,139.493 48.667 C 139.244 49.802,138.801 52.009,138.355 54.333 C 138.022 56.073,137.942 56.216,136.905 56.947 C 129.529 62.149,116.301 63.004,108.769 58.766 C 108.392 58.554,107.788 58.213,107.428 58.009 C 99.094 53.290,96.586 40.964,101.773 30.216 C 102.448 28.817,103.997 26.262,104.329 26.000 C 104.387 25.954,104.857 25.392,105.375 24.750 C 110.511 18.379,121.022 14.705,130.668 15.909 M222.074 16.014 C 234.778 17.558,241.417 27.396,238.821 40.833 C 235.830 56.318,218.813 65.410,202.837 60.061 C 198.035 58.453,193.028 54.013,191.961 50.417 C 191.907 50.233,191.696 49.633,191.493 49.083 C 190.435 46.222,190.128 42.848,190.578 39.034 C 192.396 23.611,205.541 14.004,222.074 16.014 M322.208 15.914 C 328.521 16.701,332.938 18.833,336.308 22.718 C 336.995 23.510,337.225 23.234,333.203 26.444 C 329.287 29.569,329.716 29.402,328.497 28.274 C 325.635 25.624,323.195 24.683,318.833 24.548 C 309.393 24.253,302.903 29.359,301.191 38.427 C 300.570 41.713,301.450 46.925,302.835 48.167 C 302.886 48.212,303.225 48.619,303.589 49.071 C 304.156 49.775,306.461 51.500,306.834 51.500 C 306.903 51.500,307.250 51.627,307.605 51.783 C 309.984 52.825,315.951 53.137,318.078 52.331 C 318.264 52.261,318.962 52.032,319.629 51.822 C 321.125 51.352,321.080 51.408,321.478 49.493 C 321.881 47.552,322.327 45.331,322.512 44.333 C 322.791 42.836,323.034 41.569,323.167 40.917 C 323.241 40.550,323.381 39.818,323.476 39.289 C 323.572 38.761,323.696 38.255,323.751 38.164 C 323.941 37.858,333.000 37.950,333.000 38.258 C 333.000 38.400,332.504 40.969,331.897 43.967 C 331.290 46.964,330.758 49.604,330.715 49.833 C 330.672 50.063,330.522 50.813,330.380 51.500 C 330.059 53.065,329.910 53.828,329.690 55.044 C 329.459 56.324,329.281 56.515,327.249 57.672 C 315.891 64.141,300.499 62.243,294.082 53.583 C 291.200 49.694,289.769 42.903,290.805 38.031 C 290.896 37.601,291.057 36.800,291.163 36.250 C 291.855 32.647,294.276 27.561,296.463 25.115 C 300.008 21.152,303.816 18.668,308.646 17.169 C 312.699 15.911,318.147 15.407,322.208 15.914 M188.832 16.792 C 188.831 16.952,188.642 17.983,188.413 19.083 C 188.184 20.183,187.847 21.823,187.664 22.726 C 187.481 23.629,187.290 24.436,187.239 24.518 C 187.186 24.603,182.206 24.667,175.595 24.667 L 164.043 24.667 163.869 25.375 C 163.668 26.187,163.545 26.788,162.739 30.904 C 162.416 32.546,162.191 33.989,162.237 34.108 C 162.304 34.284,164.246 34.325,172.353 34.323 C 177.871 34.321,182.444 34.379,182.515 34.451 C 182.628 34.568,182.462 35.587,181.839 38.583 C 181.744 39.042,181.549 40.017,181.407 40.750 C 181.264 41.483,181.093 42.139,181.025 42.207 C 180.958 42.275,176.296 42.350,170.666 42.374 L 160.429 42.417 160.306 42.917 C 160.185 43.406,159.437 47.143,159.147 48.708 C 159.066 49.144,158.920 49.894,158.822 50.375 C 158.724 50.856,158.603 51.531,158.554 51.875 L 158.465 52.500 170.404 52.500 C 180.617 52.500,182.357 52.535,182.435 52.739 C 182.519 52.957,181.077 60.407,180.893 60.705 C 180.809 60.840,146.779 60.890,146.643 60.754 C 146.580 60.691,148.262 51.989,149.172 47.667 C 149.393 46.617,149.561 45.801,149.941 43.917 C 150.361 41.831,150.463 41.299,150.577 40.583 C 150.636 40.217,150.749 39.654,150.830 39.333 C 150.910 39.012,151.056 38.337,151.155 37.833 C 151.254 37.329,151.456 36.317,151.604 35.583 C 151.753 34.850,151.910 34.063,151.953 33.833 C 152.456 31.165,155.386 16.719,155.443 16.625 C 155.631 16.317,188.833 16.483,188.832 16.792 M274.667 16.884 C 281.191 18.265,284.902 21.291,286.358 26.417 C 287.337 29.865,286.385 36.532,284.537 39.167 C 284.377 39.396,284.137 39.794,284.006 40.052 C 282.813 42.384,279.113 45.236,275.542 46.576 C 274.070 47.128,274.071 47.013,275.500 49.500 C 276.142 50.617,276.667 51.552,276.667 51.577 C 276.667 51.603,277.679 53.407,278.917 55.586 C 280.154 57.766,281.167 59.583,281.167 59.624 C 281.167 59.665,281.314 59.906,281.495 60.160 C 281.980 60.841,282.038 60.833,276.323 60.833 L 271.035 60.833 270.118 59.208 C 269.614 58.315,268.996 57.208,268.746 56.750 C 268.497 56.292,268.161 55.692,268.000 55.417 C 267.839 55.142,267.503 54.542,267.252 54.083 C 265.875 51.567,264.271 48.723,264.125 48.542 C 264.001 48.385,262.937 48.333,259.845 48.333 C 255.108 48.333,255.299 48.274,255.011 49.833 C 254.901 50.429,254.748 51.217,254.672 51.583 C 254.539 52.218,254.433 52.745,254.016 54.833 C 253.915 55.337,253.718 56.313,253.578 57.000 C 253.438 57.688,253.248 58.693,253.154 59.234 C 252.851 60.989,253.365 60.844,247.618 60.794 C 242.695 60.751,242.584 60.743,242.621 60.417 C 242.699 59.735,242.999 58.209,244.748 49.583 C 245.733 44.725,246.575 40.563,246.619 40.333 C 246.662 40.104,246.888 38.979,247.120 37.833 C 247.351 36.688,247.607 35.394,247.687 34.958 C 248.041 33.042,248.150 32.484,248.492 30.833 C 248.691 29.871,248.923 28.708,249.006 28.250 C 249.431 25.905,251.326 16.813,251.422 16.659 C 251.615 16.346,273.109 16.555,274.667 16.884 M380.241 16.652 C 380.292 16.735,380.176 17.579,379.982 18.527 C 379.788 19.474,379.565 20.587,379.486 21.000 C 379.407 21.412,379.207 22.387,379.041 23.167 L 378.740 24.583 367.083 24.667 L 355.426 24.750 355.305 25.417 C 355.239 25.783,354.886 27.546,354.520 29.333 C 354.154 31.121,353.803 32.976,353.740 33.456 L 353.624 34.328 361.521 34.326 C 365.863 34.324,370.448 34.325,371.708 34.328 L 374.000 34.333 374.000 34.760 C 374.000 34.994,373.929 35.500,373.843 35.885 C 373.662 36.688,373.197 39.028,372.976 40.250 C 372.893 40.708,372.768 41.346,372.697 41.667 L 372.570 42.250 362.236 42.293 L 351.902 42.336 351.701 43.293 C 351.328 45.072,350.310 50.244,350.168 51.083 C 350.090 51.542,349.975 52.047,349.913 52.207 C 349.805 52.482,350.468 52.500,361.858 52.541 L 373.917 52.583 373.896 53.083 C 373.874 53.599,373.748 54.275,373.167 57.000 C 372.981 57.871,372.761 58.958,372.678 59.417 C 372.595 59.875,372.475 60.381,372.412 60.542 C 372.304 60.817,371.330 60.833,355.232 60.833 L 338.167 60.833 338.167 60.405 C 338.167 60.058,341.945 40.845,342.490 38.417 C 342.573 38.050,342.724 37.300,342.826 36.750 C 342.928 36.200,343.078 35.450,343.159 35.083 C 343.298 34.452,343.493 33.474,343.857 31.583 C 343.945 31.125,344.082 30.450,344.162 30.083 C 344.241 29.717,344.393 28.967,344.500 28.417 C 344.607 27.867,344.757 27.117,344.833 26.750 C 344.910 26.383,345.054 25.671,345.154 25.167 C 345.253 24.662,345.456 23.650,345.604 22.917 C 345.753 22.183,345.909 21.396,345.952 21.167 C 345.995 20.938,346.144 20.188,346.284 19.500 C 346.425 18.813,346.604 17.926,346.683 17.531 C 346.763 17.135,346.871 16.741,346.924 16.656 C 347.051 16.449,380.113 16.445,380.241 16.652 M213.333 24.827 C 207.448 26.086,202.638 30.941,201.355 36.917 C 201.257 37.375,201.099 38.102,201.005 38.532 C 199.807 43.998,202.466 49.990,206.833 51.665 C 207.154 51.788,207.492 51.945,207.583 52.013 C 208.337 52.573,213.275 52.987,215.353 52.664 C 222.051 51.625,226.745 47.141,228.526 40.083 C 231.129 29.760,223.954 22.554,213.333 24.827 M259.851 25.625 C 259.671 26.411,258.189 33.697,257.408 37.641 C 257.183 38.772,257.000 39.808,257.000 39.942 C 257.000 40.341,268.164 40.188,269.667 39.770 C 275.186 38.231,278.040 32.581,275.602 28.017 C 274.259 25.503,271.977 24.833,264.752 24.833 L 260.033 24.833 259.851 25.625 " stroke="none" fill="none" fill-rule="evenodd"></path><path id="path2" d="M30.233 16.199 C 30.082 16.492,29.806 16.998,29.621 17.324 C 29.435 17.650,29.023 18.404,28.705 19.000 C 28.388 19.596,27.922 20.458,27.670 20.917 C 26.757 22.581,26.198 23.606,25.581 24.750 C 25.235 25.392,24.562 26.629,24.085 27.500 C 23.609 28.371,22.859 29.758,22.420 30.583 C 21.980 31.408,21.490 32.308,21.331 32.583 C 20.906 33.315,20.147 34.713,19.249 36.417 C 18.814 37.242,18.403 37.992,18.336 38.083 C 18.268 38.175,17.893 38.850,17.501 39.583 C 17.109 40.317,16.397 41.629,15.917 42.500 C 14.679 44.749,14.038 45.925,13.373 47.167 C 12.592 48.625,11.874 49.945,10.249 52.917 C 9.496 54.292,8.598 55.942,8.252 56.583 C 7.595 57.802,6.895 59.086,6.227 60.298 C 5.524 61.573,5.252 61.500,10.738 61.500 L 15.642 61.500 17.012 58.958 C 18.639 55.938,19.250 54.813,19.752 53.917 C 19.958 53.550,20.397 52.744,20.730 52.125 C 21.691 50.333,22.476 48.884,23.548 46.917 C 24.098 45.908,24.762 44.690,25.024 44.208 C 25.286 43.727,25.716 42.940,25.980 42.458 C 26.245 41.977,26.743 41.058,27.087 40.417 C 27.806 39.076,28.388 38.003,29.168 36.583 C 31.656 32.050,32.548 30.415,33.121 29.333 C 33.486 28.646,33.982 27.727,34.225 27.292 C 34.468 26.856,34.863 26.144,35.104 25.708 C 35.730 24.576,38.587 19.311,39.378 17.833 C 39.746 17.146,40.120 16.491,40.209 16.377 C 40.727 15.717,40.384 15.667,35.343 15.667 L 30.509 15.667 30.233 16.199 " stroke="none" fill="#06b2f1" fill-rule="evenodd"></path><path id="path3" d="M65.121 16.375 C 64.895 16.765,64.429 17.608,64.085 18.250 C 63.741 18.892,63.291 19.717,63.085 20.083 C 62.608 20.931,61.725 22.566,60.878 24.167 C 60.514 24.854,60.028 25.754,59.798 26.167 C 59.568 26.579,59.155 27.329,58.880 27.833 C 58.606 28.337,57.931 29.575,57.381 30.583 C 56.832 31.592,56.099 32.942,55.752 33.583 C 55.406 34.225,54.897 35.162,54.621 35.667 C 54.346 36.171,53.916 36.958,53.667 37.417 C 53.002 38.641,51.297 41.766,50.667 42.917 C 50.366 43.467,49.859 44.404,49.540 45.000 C 49.222 45.596,48.755 46.458,48.504 46.917 C 48.019 47.800,47.277 49.158,46.454 50.667 C 46.179 51.171,45.749 51.958,45.498 52.417 C 45.247 52.875,44.517 54.225,43.875 55.417 C 43.233 56.608,42.520 57.921,42.290 58.333 C 41.227 60.241,40.703 61.315,40.792 61.403 C 40.935 61.546,50.386 61.516,50.594 61.372 C 50.804 61.228,51.657 59.723,53.522 56.208 C 53.997 55.314,54.438 54.508,54.504 54.417 C 54.571 54.325,54.981 53.575,55.416 52.750 C 56.369 50.945,57.090 49.609,58.250 47.500 C 58.729 46.629,59.345 45.504,59.619 45.000 C 59.893 44.496,60.270 43.815,60.456 43.487 C 60.643 43.160,61.187 42.153,61.667 41.250 C 62.146 40.347,62.668 39.378,62.826 39.096 C 62.984 38.814,63.625 37.646,64.250 36.500 C 64.875 35.354,65.513 34.191,65.668 33.915 C 65.822 33.639,66.307 32.739,66.744 31.915 C 67.182 31.091,67.756 30.023,68.020 29.542 C 68.473 28.716,68.749 28.210,69.953 26.000 C 70.885 24.290,72.450 21.421,72.976 20.458 C 75.360 16.098,75.478 15.867,75.375 15.764 C 75.322 15.711,73.085 15.667,70.405 15.667 L 65.532 15.667 65.121 16.375 " stroke="none" fill="#fa043b" fill-rule="evenodd"></path></g></svg>
